<svg xmlns="http://www.w3.org/2000/svg" xmlns:xlink="http://www.w3.org/1999/xlink" baseProfile="basic" width="1114.7" height="328.2" xmlns:v="https://vecta.io/nano"><path d="M24.2 26.3c12.8 0 20.9 7.7 20.9 21.6v10.3c0 13.9-8.1 21.6-20.9 21.6s-21-7.7-21-21.6V47.9c.1-13.9 8.3-21.6 21-21.6zm0 47.4c8.6 0 14.3-4 14.3-15.4V47.9c0-10.6-5.7-15.4-14.3-15.4S9.8 37.3 9.8 47.9v10.3c.1 11.5 5.8 15.5 14.4 15.5zm43.2.6v4.8h-6.7V3.3h6.7v28.8c3.3-3.7 8.3-5.7 14.4-5.7 12.8 0 20.9 7.7 20.9 21.6v10.3c0 13.9-8.1 21.6-20.9 21.6-6.1 0-11-1.9-14.4-5.6h0zm14.3-.6c8.6 0 14.3-4 14.3-15.4V47.9c0-10.6-5.7-15.4-14.3-15.4-8.2 0-14.4 4.8-14.4 15.4v10.3c.1 11.5 6.2 15.5 14.4 15.5zm32.5-11.4h6.6c0 7.8 6.1 11.4 14.3 11.4s13.4-3.4 13.4-8.8c0-3.5-2.2-6.5-8.1-8l-12-3c-7.6-1.9-11.9-6.5-11.9-13.4 0-7.9 6.6-14 18.1-14s19.3 6.7 19.3 16.3h-6.4c-.2-6.8-5.6-10.2-12.9-10.2-7.6 0-11.8 3.3-11.8 8 0 4.3 3.1 6.3 7.8 7.5l11.2 2.8c9.1 2.3 13.3 7.1 13.3 14.2 0 8.7-7.6 15.1-20.1 15.1-12.3-.3-20.6-6.2-20.8-17.9h0zm52.3-4.1V47.9c0-13.9 8.2-21.6 21-21.6 12.2 0 20.7 7 20.9 21.6v7.6h-35.3v2.7c0 11.4 5.8 15.4 14.4 15.4 7.3 0 13-2.9 14-10.8h6.7c-1.1 11.1-9.4 17.1-20.7 17.1-12.8 0-21-7.7-21-21.7h0zm35.3-8.6V48c-.2-11.3-6.2-15.6-14.3-15.6-8.6 0-14.4 4.3-14.4 15.6v1.6h28.7 0zm22.1-22.4h6.7v7.2c2.1-4 6.3-7.2 13.8-7.2h5.1v6.7h-5.1c-8.1 0-13.8 4.6-13.8 15.5V79h-6.7V27.2zm34 0h7.3l16.7 49.9 16.8-49.9h7.3L288 79h-12.1l-18-51.8h0zm57.4 31V47.9c0-13.9 8.1-21.6 20.9-21.6 6.1 0 11 1.9 14.4 5.7v-4.8h6.7V79h-6.7v-4.8c-3.3 3.7-8.3 5.7-14.4 5.7-12.8 0-20.9-7.7-20.9-21.7h0zm20.9 15.5c8.3 0 14.4-4 14.4-15.4V47.9c0-10.6-6.1-15.4-14.4-15.4-8.6 0-14.3 4.8-14.3 15.4v10.3c.1 11.5 5.7 15.5 14.3 15.5zm42.6-4.5V33.5h-7.7v-6.3h7.8V14.9h6.6v12.3h13v6.3h-13v39.2h13.2V79h-9.5c-7.7 0-10.4-4.3-10.4-9.8zm52-42.9c12.8 0 20.9 7.7 20.9 21.6v10.3c0 13.9-8.1 21.6-20.9 21.6s-21-7.7-21-21.6V47.9c0-13.9 8.2-21.6 21-21.6zm0 47.4c8.6 0 14.3-4 14.3-15.4V47.9c0-10.6-5.7-15.4-14.3-15.4s-14.4 4.8-14.4 15.4v10.3c.1 11.5 5.8 15.5 14.4 15.5zm35.5-66.9h8v9h-8v-9zm.6 20.4h6.6V79h-6.6V27.2zm26 0h6.7v7.2c2.1-4 6.3-7.2 13.8-7.2h5.1v6.7h-5.1c-8.1 0-13.8 4.6-13.8 15.5V79h-6.7V27.2zm33 31V47.9c0-13.9 8.2-21.6 21-21.6 12.2 0 20.7 7 20.9 21.6v7.6h-35.3v2.7c0 11.4 5.8 15.4 14.4 15.4 7.3 0 13-2.9 14-10.8h6.7c-1.1 11.1-9.4 17.1-20.7 17.1-12.8 0-21-7.7-21-21.7h0zm35.3-8.6V48C561 36.6 555 32.4 547 32.4c-8.6 0-14.4 4.3-14.4 15.6v1.6h28.6 0zM3.3 181.3V171c0-13.9 8.1-21.6 20.9-21.6 6.1 0 10.9 1.9 14.4 5.7v-28.8h6.7V202h-6.8v-4.8c-3.3 3.7-8.3 5.7-14.4 5.7-12.7 0-20.8-7.7-20.8-21.6zm20.8 15.3c8.2 0 14.4-4 14.4-15.4v-10.3c0-10.6-6.2-15.4-14.4-15.4-8.6 0-14.3 4.8-14.3 15.4v10.3c.1 11.5 5.7 15.4 14.3 15.4zm35.6-15.3V171c0-13.9 8.2-21.6 21-21.6 12.2 0 20.7 7 20.9 21.6v7.6H66.3v2.7c0 11.4 5.8 15.4 14.4 15.4 7.3 0 13-2.9 14-10.8h6.7C100.3 197 92 203 80.7 203c-12.8-.1-21-7.8-21-21.7zm35.2-8.7V171c-.2-11.3-6.2-15.6-14.3-15.6-8.6 0-14.4 4.3-14.4 15.6v1.6h28.7zm50.8 21.3v-67.7h6.7v69.5h8.9v6.3h-6.6c-6.1 0-9-3.2-9-8.1h0zm23.8-12.6V171c0-13.9 8.1-21.6 20.9-21.6 6.1 0 10.9 1.9 14.4 5.7v-4.8h6.7V202h-6.7v-4.8c-3.3 3.7-8.3 5.7-14.4 5.7-12.8 0-20.9-7.7-20.9-21.6zm21 15.3c8.3 0 14.4-4 14.4-15.4v-10.3c0-10.6-6.1-15.4-14.4-15.4-8.6 0-14.3 4.8-14.3 15.4v10.3c0 11.5 5.7 15.4 14.3 15.4zm74.9.6v28.2h-6.7v-75.2h6.7v4.8c3.3-3.7 8.3-5.7 14.4-5.7 12.8 0 20.9 7.7 20.9 21.6v10.3c0 13.9-8.1 21.6-20.9 21.6-6.1.1-11-1.8-14.4-5.6zm14.3-.6c8.6 0 14.3-5.6 14.3-15.4v-10.3c0-10.6-5.7-15.4-14.3-15.4-8.2 0-14.4 4.8-14.4 15.4v10.3c.1 10 6.2 15.4 14.4 15.4zm53.5-47.3c12.8 0 20.9 7.7 20.9 21.6v10.3c0 13.9-8.1 21.6-20.9 21.6s-21-7.7-21-21.6v-10.3c0-13.9 8.1-21.6 21-21.6zm0 47.3c8.6 0 14.3-4 14.3-15.4v-10.3c0-10.6-5.7-15.4-14.3-15.4s-14.4 4.8-14.4 15.4v10.3c0 11.5 5.7 15.4 14.4 15.4z"/><use xlink:href="#B"/><path d="M424.9 192.2v-35.7h-7.7v-6.3h7.8v-12.3h6.6v12.3h13v6.3h-13v39.2h13.2v6.3h-9.4c-7.8 0-10.5-4.3-10.5-9.8zm34.1-23h30.1v6.2H459v-6.2z"/><use xlink:href="#C"/><path d="M561.1 150.2h6.7v7.2c2.1-4 6.3-7.2 13.8-7.2h5.1v6.7h-5.1c-8.1 0-13.8 4.6-13.8 15.5V202h-6.7v-51.8h0zm54-.9c12.8 0 20.9 7.7 20.9 21.6v10.3c0 13.9-8.1 21.6-20.9 21.6s-21-7.7-21-21.6v-10.3c0-13.9 8.2-21.6 21-21.6zm0 47.3c8.6 0 14.3-4 14.3-15.4v-10.3c0-10.6-5.7-15.4-14.3-15.4s-14.4 4.8-14.4 15.4v10.3c0 11.5 5.8 15.4 14.4 15.4zm35.5-66.8h8v9h-8v-9zm.6 20.4h6.6V202h-6.6v-51.8z"/><use xlink:href="#B" x="307.6"/><use xlink:href="#B" x="360"/><path d="M777.8 181.3V171c0-13.9 8.1-21.6 20.9-21.6 6.1 0 11 1.9 14.4 5.7v-4.8h6.7V202h-6.7v-4.8c-3.3 3.7-8.3 5.7-14.4 5.7-12.8 0-20.9-7.7-20.9-21.6zm20.9 15.3c8.3 0 14.4-4 14.4-15.4v-10.3c0-10.6-6.1-15.4-14.4-15.4-8.6 0-14.3 4.8-14.3 15.4v10.3c.1 11.5 5.8 15.4 14.3 15.4zm39.7-46.4h6.7v6.8c2.4-4.4 7.7-7.7 15.7-7.7 11.7 0 19.2 7.8 19.2 19.3v33.5h-6.7v-31.8c0-9.1-5-14.6-13.9-14.6-8.1 0-14.3 4.9-14.3 14.6v31.8h-6.7v-51.9h0z"/><use xlink:href="#C" x="390.8"/><path d="M947.7 181.3V171c0-13.9 8.2-21.6 21-21.6 12.2 0 20.7 7 20.9 21.6v7.6h-35.3v2.7c0 11.4 5.8 15.4 14.4 15.4 7.3 0 13-2.9 14-10.8h6.7C988.3 197 980 203 968.7 203c-12.7-.1-21-7.8-21-21.7h0zm35.3-8.7V171c-.2-11.3-6.2-15.6-14.3-15.6-8.6 0-14.4 4.3-14.4 15.6v1.6H983h0zM3.3 304.3V294c0-13.9 8.2-21.6 21-21.6 12.2 0 20.7 7 20.9 21.6v7.6H9.9v2.7c0 11.4 5.8 15.4 14.4 15.4 7.3 0 13-2.9 14-10.8H45C43.9 320 35.6 326 24.3 326c-12.8-.1-21-7.8-21-21.7h0zm35.1-8.7V294c-.2-11.3-6.2-15.6-14.3-15.6-8.6 0-14.4 4.3-14.4 15.6v1.6h28.7zm25.1 19.6v-35.7h-7.7v-6.3h7.8v-12.3h6.6v12.3h13v6.3h-13v39.2h13.2v6.3H74c-7.8 0-10.5-4.4-10.5-9.8zm59.6-10.9V294c0-13.9 8.1-21.6 20.9-21.6 6.1 0 10.9 1.9 14.4 5.7v-28.8h6.7V325h-6.7v-4.8c-3.3 3.7-8.3 5.7-14.4 5.7-12.8 0-20.9-7.7-20.9-21.6zm21 15.3c8.2 0 14.4-4 14.4-15.4V294c0-10.6-6.2-15.4-14.4-15.4-8.6 0-14.3 4.8-14.3 15.4v10.3c0 11.4 5.7 15.3 14.3 15.3zm35.6-15.3V294c0-13.9 8.2-21.6 21-21.6 12.2 0 20.7 7 20.9 21.6v7.6h-35.3v2.7c0 11.4 5.8 15.4 14.4 15.4 7.3 0 13-2.9 14-10.8h6.7C220.3 320 212 326 200.7 326c-12.9-.1-21-7.8-21-21.7h0zm35.1-8.7V294c-.2-11.3-6.2-15.6-14.3-15.6-8.6 0-14.4 4.3-14.4 15.6v1.6h28.7 0zm50.8 21.3v-67.7h6.7v69.5h8.9v6.3h-6.6c-6 0-9-3.2-9-8.1h0zm23.9-12.6V294c0-13.9 8.1-21.6 20.9-21.6 6.1 0 10.9 1.9 14.4 5.7v-4.8h6.7V325h-6.7v-4.8c-3.3 3.7-8.3 5.7-14.4 5.7-12.8 0-20.9-7.7-20.9-21.6zm20.8 15.3c8.3 0 14.4-4 14.4-15.4V294c0-10.6-6.1-15.4-14.4-15.4-8.6 0-14.3 4.8-14.3 15.4v10.3c.2 11.4 5.8 15.3 14.3 15.3zm64.2-15.3V294c0-13.9 8.1-21.6 20.9-21.6 6.1 0 10.9 1.9 14.4 5.7v-28.8h6.7V325h-6.7v-4.8c-3.3 3.7-8.3 5.7-14.4 5.7-12.8 0-20.9-7.7-20.9-21.6zm20.9 15.3c8.2 0 14.4-4 14.4-15.4V294c0-10.6-6.2-15.4-14.4-15.4-8.6 0-14.3 4.8-14.3 15.4v10.3c.1 11.4 5.8 15.3 14.3 15.3zm35.6-15.3V294c0-13.9 8.2-21.6 21-21.6 12.2 0 20.7 7 20.9 21.6v7.6h-35.3v2.7c0 11.4 5.8 15.4 14.4 15.4 7.3 0 13-2.9 14-10.8h6.7C471.6 320 463.3 326 452 326c-12.8-.1-21-7.8-21-21.7zm35.3-8.7V294c-.2-11.3-6.2-15.6-14.3-15.6-8.6 0-14.4 4.3-14.4 15.6v1.6h28.7zM454 250.3h7.3l-6.4 15h-6.3l5.4-15h0zm30.3 54V294c0-13.9 8.2-21.6 21-21.6 11.8 0 20.2 6.5 20.8 18.5h-6.7c-.6-8.4-6.5-12.2-14.2-12.2-8.6 0-14.4 4.8-14.4 15.4v10.3c0 11.4 5.8 15.4 14.4 15.4 7.8 0 13.7-3.3 14.2-12.5h6.7c-.4 12.1-8.9 18.8-20.8 18.8-12.8-.2-21-7.9-21-21.8h0zm57.4-31.1h6.7v7.2c2.1-4 6.3-7.2 13.8-7.2h5.1v6.7h-5.1c-8.1 0-13.8 4.6-13.8 15.5V325h-6.7v-51.8h0zm54-.9c12.8 0 20.9 7.7 20.9 21.6v10.3c0 13.9-8.1 21.6-20.9 21.6s-21-7.7-21-21.6V294c.1-14 8.2-21.7 21-21.7zm0 47.3c8.6 0 14.3-4 14.3-15.4V294c0-10.6-5.7-15.4-14.3-15.4s-14.4 4.8-14.4 15.4v10.3c0 11.4 5.8 15.3 14.4 15.3zm35.5-66.8h8v9h-8v-9zm.6 20.4h6.6V325h-6.6v-51.8zm21.9 35.1h6.6c0 7.8 6.1 11.4 14.3 11.4s13.4-3.4 13.4-8.8c0-3.5-2.2-6.5-8.1-8l-12-3c-7.6-1.9-11.9-6.5-11.9-13.4 0-7.9 6.6-14 18.1-14s19.3 6.7 19.3 16.3H687c-.2-6.8-5.6-10.2-12.9-10.2-7.6 0-11.8 3.3-11.8 8 0 4.3 3.1 6.3 7.8 7.5l11.2 2.8c9.1 2.3 13.3 7.1 13.3 14.2 0 8.7-7.6 15.1-20.1 15.1-12.2-.3-20.6-6.3-20.8-17.9h0zm52.4 0h6.6c0 7.8 6.1 11.4 14.3 11.4s13.4-3.4 13.4-8.8c0-3.5-2.2-6.5-8.1-8l-12-3c-7.6-1.9-11.9-6.5-11.9-13.4 0-7.9 6.6-14 18.1-14s19.3 6.7 19.3 16.3h-6.4c-.2-6.8-5.6-10.2-12.9-10.2-7.6 0-11.8 3.3-11.8 8 0 4.3 3.1 6.3 7.8 7.5l11.2 2.8c9.1 2.3 13.3 7.1 13.3 14.2 0 8.7-7.6 15.1-20.1 15.1-12.2-.3-20.6-6.3-20.8-17.9h0zm52.4-4V294c0-13.9 8.1-21.6 20.9-21.6 6.1 0 11 1.9 14.4 5.7v-4.8h6.7V325h-6.7v-4.8c-3.3 3.7-8.3 5.7-14.4 5.7-12.8 0-20.9-7.7-20.9-21.6zm20.8 15.3c8.3 0 14.4-4 14.4-15.4V294c0-10.6-6.1-15.4-14.4-15.4-8.6 0-14.3 4.8-14.3 15.4v10.3c.1 11.4 5.7 15.3 14.3 15.3zm39.8-46.4h6.7v6.8c2.4-4.4 7.7-7.7 15.7-7.7 11.7 0 19.2 7.8 19.2 19.3v33.5H854v-31.8c0-9.1-5-14.6-13.9-14.6-8.1 0-14.3 4.9-14.3 14.6v31.8h-6.7v-51.9h0zm56.1 31.1V294c0-13.9 8.2-21.6 21-21.6 11.8 0 20.2 6.5 20.8 18.5h-6.7c-.6-8.4-6.5-12.2-14.2-12.2-8.6 0-14.4 4.8-14.4 15.4v10.3c0 11.4 5.8 15.4 14.4 15.4 7.8 0 13.7-3.3 14.2-12.5h6.7c-.4 12.1-8.9 18.8-20.8 18.8-12.9-.2-21-7.9-21-21.8h0zm53.2 0V294c0-13.9 8.2-21.6 21-21.6 12.2 0 20.7 7 20.9 21.6v7.6H935v2.7c0 11.4 5.8 15.4 14.4 15.4 7.3 0 13-2.9 14-10.8h6.7C969 320 960.7 326 949.4 326c-12.8-.1-21-7.8-21-21.7zm35.3-8.7V294c-.2-11.3-6.2-15.6-14.3-15.6-8.6 0-14.4 4.3-14.4 15.6v1.6h28.7z"/><path fill="#ffcc1b" d="M846.9 41.2c-.9 4.5-1.6 10-1.8 16.8 10-2 21-3.7 32.6-5.1-11.2 5.2-22.4 11.8-32.4 19.5.5 8.7 1.6 18.9 3.4 30.4l-20.5-15.2c-8.3 8.6-14.8 17.8-18.5 26.8 2.1-11.4 5.2-23 9.3-33.7L805.9 71c5.9-3.2 13.3-6.2 21.9-8.7 5.4-9.1 11.9-16.6 19.1-21.1h0zm96.7-28.7c3.2-.6 7.3 8 11.6 13.9 12.7.2 25.4.8 37.5 1.8-8.3 3-17.9 7.2-28.5 12.4 5.1 9.2 10.4 20.8 15.8 33.8-12.4-8.4-24.8-16.1-36.5-22.7-11.7 6.7-24.1 14.4-36.5 22.7 5.4-12.9 10.7-24.6 15.8-33.8-10.6-5.3-20.1-9.4-28.5-12.4 12.1-1 24.8-1.6 37.5-1.8 4.5-5.9 8.5-14.5 11.8-13.9h0zm115.8 49.8c8.7 2.5 16.1 5.5 21.9 8.7l-13.1 9.8c4.1 10.6 7.2 22.1 9.3 33.7-3.8-9-10.3-18.1-18.5-26.7l-20.5 15.2c1.8-11.6 2.9-21.7 3.4-30.4a167.99 167.99 0 0 0-32.4-19.5c11.6 1.3 22.6 3 32.6 5.1-.2-6.9-1-12.3-1.8-16.9 7.3 4.4 13.7 12 19.1 21zm27.7 57.9c3.7 12.5 6.7 25.2 8.8 37.5 6.1.5 14.8 1.2 14.2 1.9.5 5.5-6.9 12.3-10.9 20.1 1.3 11.5 2 22.2 2.4 32.2-2.5-4.6-6.7-10.3-12.6-17.1-6.7 8.6-15.5 17.7-25.6 26.8 4.9-13.2 9.1-27 12.5-40.4-8.1-7.9-17.9-16.6-28.8-25.7l34.4 1.1a390.97 390.97 0 0 0 5.6-36.4h0zm-24.7 109.5c1 10.7 1.3 20.3 1.5 28.8 7.8-3 13.7-6.5 17.4-10.4-2.9 9.4-9 18.2-17.1 25.7.1 7.8.4 15 1.4 22.6-7.1-4.8-12.6-7.7-18.4-10.5-10 5.5-21.2 9.2-32.3 10.5 7.6-2.2 14.8-7.9 21.3-15.8-6.3-2.9-13.4-6.4-21.8-10.8 12.2-1.5 23.4-3.5 33.3-6.1 5.6-10.1 10.6-21.9 14.7-34h0z"/><defs ><path id="B" d="M365.5 185.3h6.6c0 7.8 6.1 11.4 14.3 11.4s13.4-3.4 13.4-8.8c0-3.5-2.2-6.5-8.1-8l-12-3c-7.6-1.9-11.9-6.5-11.9-13.4 0-7.9 6.6-14 18.1-14s19.3 6.7 19.3 16.3h-6.4c-.2-6.8-5.6-10.2-12.9-10.2-7.6 0-11.8 3.3-11.8 8 0 4.3 3.1 6.3 7.8 7.5l11.2 2.8c9.1 2.3 13.3 7.1 13.3 14.2 0 8.7-7.6 15.1-20.1 15.1-12.2-.3-20.6-6.3-20.8-17.9h0z"/><path id="C" d="M503.7 181.3V171c0-13.9 8.2-21.6 21-21.6 11.8 0 20.2 6.5 20.8 18.5h-6.7c-.6-8.4-6.5-12.2-14.2-12.2-8.6 0-14.4 4.8-14.4 15.4v10.3c0 11.4 5.8 15.4 14.4 15.4 7.8 0 13.7-3.3 14.2-12.5h6.7c-.4 12.1-8.9 18.8-20.8 18.8-12.8-.2-21-7.9-21-21.8h0z"/></defs></svg>