<svg xmlns="http://www.w3.org/2000/svg" xmlns:xlink="http://www.w3.org/1999/xlink" width="1114.7" height="441.2" xmlns:v="https://vecta.io/nano"><path d="M155.9 141.6c12.7 0 20.7 7.6 20.7 21.4v10.2c0 13.8-8 21.4-20.7 21.4s-20.8-7.6-20.8-21.4V163c.1-13.8 8.2-21.4 20.8-21.4zm0 46.9c8.5 0 14.1-4 14.1-15.2V163c0-10.5-5.6-15.2-14.1-15.2s-14.2 4.7-14.2 15.2v10.2c.1 11.3 5.7 15.3 14.2 15.3zm42.7.6v4.7H192v-75h6.6v28.5c3.3-3.7 8.2-5.6 14.2-5.6 12.7 0 20.7 7.6 20.7 21.4v10.2c0 13.8-8 21.4-20.7 21.4-5.9-.1-10.8-2-14.2-5.6zm14.2-.6c8.5 0 14.1-4 14.1-15.2V163c0-10.5-5.6-15.2-14.1-15.2-8.1 0-14.2 4.7-14.2 15.2v10.2c0 11.3 6.1 15.3 14.2 15.3zm32.1-11.3h6.5c0 7.7 6 11.3 14.1 11.3s13.3-3.4 13.3-8.7c0-3.5-2.2-6.4-8-7.9l-11.9-3c-7.5-1.9-11.8-6.4-11.8-13.3 0-7.8 6.5-13.9 17.9-13.9s19.1 6.6 19.1 16.1h-6.3c-.2-6.7-5.5-10.1-12.8-10.1-7.5 0-11.7 3.3-11.7 7.9 0 4.3 3.1 6.2 7.7 7.4l11.1 2.8c9 2.3 13.2 7 13.2 14 0 8.6-7.5 14.9-19.9 14.9-12-.1-20.3-5.9-20.5-17.5z"/><use xlink:href="#B"/><use xlink:href="#C"/><path d="M387.1 142.5h7.2l16.5 49.4 16.6-49.4h7.2l-17.8 51.2h-12l-17.7-51.2zm56.8 30.7V163c0-13.8 8-21.4 20.7-21.4 6 0 10.9 1.9 14.2 5.6v-4.7h6.6v51.2h-6.6V189c-3.3 3.7-8.2 5.6-14.2 5.6-12.7 0-20.7-7.6-20.7-21.4zm20.7 15.3c8.2 0 14.2-4 14.2-15.2V163c0-10.5-6-15.2-14.2-15.2-8.5 0-14.1 4.7-14.1 15.2v10.2c0 11.3 5.6 15.3 14.1 15.3zm42.1-4.5v-35.3h-7.6v-6.2h7.7v-12.2h6.5v12.2h12.9v6.2h-12.9v38.8h13.1v6.2H517c-7.6 0-10.3-4.2-10.3-9.7zm51.5-42.4c12.7 0 20.7 7.6 20.7 21.4v10.2c0 13.8-8 21.4-20.7 21.4s-20.8-7.6-20.8-21.4V163c0-13.8 8.1-21.4 20.8-21.4zm0 46.9c8.5 0 14.1-4 14.1-15.2V163c0-10.5-5.6-15.2-14.1-15.2S544 152.5 544 163v10.2c0 11.3 5.7 15.3 14.2 15.3zm35.1-66.2h7.9v8.9h-7.9v-8.9zm.6 20.2h6.5v51.2h-6.5v-51.2z"/><use xlink:href="#C" x="266.1"/><use xlink:href="#B" x="355.6"/><path d="M135.2 294.9v-10.2c0-13.8 8-21.4 20.7-21.4 6 0 10.8 1.9 14.2 5.6v-28.5h6.6v75H170v-4.7c-3.3 3.7-8.2 5.6-14.2 5.6-12.6 0-20.6-7.6-20.6-21.4zm20.6 15.2c8.1 0 14.2-4 14.2-15.2v-10.2c0-10.5-6.1-15.2-14.2-15.2-8.5 0-14.1 4.7-14.1 15.2v10.2c.1 11.3 5.6 15.2 14.1 15.2z"/><use xlink:href="#D"/><path d="M276.1 307.4v-67h6.6v68.8h8.8v6.2H285c-6 0-8.9-3.1-8.9-8zm23.6-12.5v-10.2c0-13.8 8-21.4 20.7-21.4 6 0 10.8 1.9 14.2 5.6v-4.7h6.6v51.2h-6.6v-4.7c-3.3 3.7-8.2 5.6-14.2 5.6-12.7 0-20.7-7.6-20.7-21.4zm20.7 15.2c8.2 0 14.2-4 14.2-15.2v-10.2c0-10.5-6-15.2-14.2-15.2-8.5 0-14.1 4.7-14.1 15.2v10.2c0 11.3 5.6 15.2 14.1 15.2zm74.1.6v27.9h-6.6v-74.4h6.6v4.7c3.3-3.7 8.2-5.6 14.2-5.6 12.7 0 20.7 7.6 20.7 21.4v10.2c0 13.8-8 21.4-20.7 21.4-6 0-10.8-1.9-14.2-5.6zm14.2-.6c8.5 0 14.1-5.5 14.1-15.2v-10.2c0-10.5-5.6-15.2-14.1-15.2-8.1 0-14.2 4.7-14.2 15.2v10.2c0 9.8 6.1 15.2 14.2 15.2zm52.9-46.8c12.7 0 20.7 7.6 20.7 21.4v10.2c0 13.8-8 21.4-20.7 21.4s-20.8-7.6-20.8-21.4v-10.2c0-13.8 8.1-21.4 20.8-21.4zm0 46.8c8.5 0 14.1-4 14.1-15.2v-10.2c0-10.5-5.6-15.2-14.1-15.2s-14.2 4.7-14.2 15.2v10.2c0 11.3 5.6 15.2 14.2 15.2z"/><use xlink:href="#E"/><path d="M552.3 305.7v-35.3h-7.6v-6.2h7.7V252h6.5v12.2h12.9v6.2h-12.9v38.8H572v6.2h-9.3c-7.7 0-10.4-4.2-10.4-9.7zm33.8-22.7h29.8v6.1h-29.8V283z"/><use xlink:href="#F"/><path d="M687.1 264.2h6.6v7.1c2.1-4 6.2-7.1 13.7-7.1h5v6.6h-5c-8 0-13.7 4.6-13.7 15.3v29.3h-6.6v-51.2zm53.4-.9c12.7 0 20.7 7.6 20.7 21.4v10.2c0 13.8-8 21.4-20.7 21.4s-20.8-7.6-20.8-21.4v-10.2c0-13.8 8.1-21.4 20.8-21.4zm0 46.8c8.5 0 14.1-4 14.1-15.2v-10.2c0-10.5-5.6-15.2-14.1-15.2s-14.2 4.7-14.2 15.2v10.2c0 11.3 5.7 15.2 14.2 15.2zm35.1-66.1h7.9v8.9h-7.9V244zm.6 20.2h6.5v51.2h-6.5v-51.2z"/><use xlink:href="#E" x="304.3"/><use xlink:href="#E" x="356.1"/><path d="M901.5 294.9v-10.2c0-13.8 8-21.4 20.7-21.4 6 0 10.9 1.9 14.2 5.6v-4.7h6.6v51.2h-6.6v-4.7c-3.3 3.7-8.2 5.6-14.2 5.6-12.7 0-20.7-7.6-20.7-21.4zm20.7 15.2c8.2 0 14.2-4 14.2-15.2v-10.2c0-10.5-6-15.2-14.2-15.2-8.5 0-14.1 4.7-14.1 15.2v10.2c0 11.3 5.6 15.2 14.1 15.2zm39.2-45.9h6.6v6.7c2.4-4.4 7.6-7.6 15.5-7.6 11.6 0 19 7.7 19 19.1v33.1h-6.6V284c0-9-4.9-14.4-13.8-14.4-8 0-14.1 4.8-14.1 14.4v31.5h-6.6v-51.3z"/><use xlink:href="#F" x="386.6"/><path d="M1069.6 294.9v-10.2c0-13.8 8.1-21.4 20.8-21.4 12.1 0 20.5 6.9 20.7 21.4v7.5h-34.9v2.7c0 11.3 5.7 15.2 14.2 15.2 7.2 0 12.9-2.9 13.9-10.7h6.6c-1.1 11-9.3 16.9-20.5 16.9-12.6 0-20.8-7.6-20.8-21.4zm34.9-8.6v-1.6c-.2-11.2-6.1-15.4-14.1-15.4-8.5 0-14.2 4.3-14.2 15.4v1.6h28.3zM135.2 416.6v-10.2c0-13.8 8.1-21.4 20.8-21.4 12.1 0 20.5 6.9 20.7 21.4v7.5h-34.9v2.7c0 11.3 5.7 15.2 14.2 15.2 7.2 0 12.9-2.9 13.9-10.7h6.6c-1.1 11-9.3 16.9-20.5 16.9-12.7 0-20.8-7.6-20.8-21.4zM170 408v-1.6c-.2-11.2-6.1-15.4-14.1-15.4-8.5 0-14.2 4.3-14.2 15.4v1.6H170zm24.8 19.4v-35.3h-7.6v-6.2h7.7v-12.2h6.5v12.2h12.9v6.2h-12.9v38.8h13.1v6.2h-9.3c-7.7 0-10.4-4.3-10.4-9.7z"/><use xlink:href="#G"/><path d="M309.7 416.6v-10.2c0-13.8 8.1-21.4 20.8-21.4 12.1 0 20.5 6.9 20.7 21.4v7.5h-34.9v2.7c0 11.3 5.7 15.2 14.2 15.2 7.2 0 12.9-2.9 13.9-10.7h6.6c-1.1 11-9.3 16.9-20.5 16.9-12.7 0-20.8-7.6-20.8-21.4zm34.8-8.6v-1.6c-.2-11.2-6.1-15.4-14.1-15.4-8.5 0-14.2 4.3-14.2 15.4v1.6h28.3zm50.2 21.1v-67h6.6v68.8h8.8v6.2h-6.5c-5.9 0-8.9-3.2-8.9-8zm23.7-12.5v-10.2c0-13.8 8-21.4 20.7-21.4 6 0 10.8 1.9 14.2 5.6v-4.7h6.6v51.2h-6.6v-4.7c-3.3 3.7-8.2 5.6-14.2 5.6-12.7 0-20.7-7.6-20.7-21.4zm20.6 15.2c8.2 0 14.2-4 14.2-15.2v-10.2c0-10.5-6-15.2-14.2-15.2-8.5 0-14.1 4.7-14.1 15.2v10.2c.1 11.3 5.6 15.2 14.1 15.2z"/><use xlink:href="#G" x="248.7"/><path d="M558.4 416.6v-10.2c0-13.8 8.1-21.4 20.8-21.4 12.1 0 20.5 6.9 20.7 21.4v7.5H565v2.7c0 11.3 5.7 15.2 14.2 15.2 7.2 0 12.9-2.9 13.9-10.7h6.6c-1.1 11-9.3 16.9-20.5 16.9-12.7 0-20.8-7.6-20.8-21.4zm34.9-8.6v-1.6c-.2-11.2-6.1-15.4-14.1-15.4-8.5 0-14.2 4.3-14.2 15.4v1.6h28.3zm-12.2-44.8h7.2L582 378h-6.2l5.3-14.8z"/><use xlink:href="#F" x="-19.2" y="121.7"/><path d="M667.9 385.9h6.6v7.1c2.1-4 6.2-7.1 13.7-7.1h5v6.6h-5c-8 0-13.7 4.6-13.7 15.3v29.3h-6.6v-51.2zm53.4-.9c12.7 0 20.7 7.6 20.7 21.4v10.2c0 13.8-8 21.4-20.7 21.4s-20.8-7.6-20.8-21.4v-10.2c.1-13.8 8.2-21.4 20.8-21.4zm0 46.8c8.5 0 14.1-4 14.1-15.2v-10.2c0-10.5-5.6-15.2-14.1-15.2s-14.2 4.7-14.2 15.2v10.2c0 11.3 5.7 15.2 14.2 15.2zm35.1-66.1h7.9v8.9h-7.9v-8.9zm.6 20.2h6.5v51.2H757v-51.2z"/><use xlink:href="#E" x="285.1" y="121.7"/><path d="M830.5 420.6h6.5c0 7.7 6 11.3 14.1 11.3s13.3-3.4 13.3-8.7c0-3.5-2.2-6.4-8-7.9l-11.9-3c-7.5-1.9-11.8-6.4-11.8-13.3 0-7.8 6.5-13.9 17.9-13.9s19.1 6.6 19.1 16.1h-6.3c-.2-6.7-5.5-10.1-12.8-10.1-7.5 0-11.7 3.3-11.7 7.9 0 4.3 3.1 6.2 7.7 7.4l11.1 2.8c9 2.3 13.2 7 13.2 14 0 8.6-7.5 14.9-19.9 14.9-11.9-.1-20.3-6-20.5-17.5zm51.9-4v-10.2c0-13.8 8-21.4 20.7-21.4 6 0 10.9 1.9 14.2 5.6v-4.7h6.6v51.2h-6.6v-4.7c-3.3 3.7-8.2 5.6-14.2 5.6-12.7 0-20.7-7.6-20.7-21.4zm20.6 15.2c8.2 0 14.2-4 14.2-15.2v-10.2c0-10.5-6-15.2-14.2-15.2-8.5 0-14.1 4.7-14.1 15.2v10.2c0 11.3 5.6 15.2 14.1 15.2zm39.3-45.9h6.6v6.7c2.4-4.4 7.6-7.6 15.5-7.6 11.6 0 19 7.7 19 19.1v33.1h-6.6v-31.5c0-9-4.9-14.4-13.8-14.4-8 0-14.1 4.8-14.1 14.4v31.5h-6.6v-51.3z"/><use xlink:href="#F" x="367.5" y="121.7"/><use xlink:href="#D" x="859.5" y="121.7"/><path d="M260.3 28.4c7.2 4.5 13.6 11.9 18.9 20.9 8.5 2.5 15.9 5.4 21.7 8.6l-13 9.7c4.1 10.5 7.1 22 9.2 33.3-3.7-8.9-10.1-18-18.3-26.5l-20.3 15c1.8-11.4 2.9-21.5 3.4-30.1-9.9-7.6-21-14.2-32.1-19.3 11.5 1.3 22.4 3 32.3 5-.2-6.7-.9-12.1-1.8-16.6zM164.7 0c3.2-.6 7.2 7.9 11.7 13.8 12.6.2 25.1.8 37.1 1.8-8.3 3-17.7 7.1-28.2 12.3 5 9.1 10.3 20.6 15.6 33.4-12.3-8.3-24.5-15.9-36.1-22.5-11.6 6.6-23.8 14.2-36.1 22.5 5.3-12.8 10.6-24.3 15.6-33.4-10.5-5.2-20-9.3-28.2-12.3 12-1 24.5-1.6 37.1-1.8 4.3-5.9 8.3-14.4 11.5-13.8zM69 28.4c-.8 4.5-1.6 9.9-1.8 16.7 9.9-2 20.8-3.7 32.3-5-11.1 5.1-22.2 11.7-32.1 19.3.5 8.6 1.6 18.6 3.4 30.1l-20.3-15C42.4 83 36 92 32.2 100.9c2.1-11.4 5.1-22.8 9.2-33.3l-13-9.7c5.8-3.2 13.1-6.1 21.7-8.6 5.3-8.9 11.7-16.4 18.9-20.9zm-46.3 78.2c1.2 11.1 3 23.3 5.6 36.1 9.3-.5 20.9-.8 34-1.1-10.8 9-20.5 17.6-28.5 25.4 3.4 13.3 7.6 26.9 12.4 40-10-9-18.7-18-25.3-26.5-5.9 6.7-10 12.3-12.5 16.9.4-9.9 1.1-20.5 2.4-31.9C6.8 157.8-.5 151 0 145.6c-.6-.7 8-1.4 14-1.9 2.1-12.2 5-24.7 8.7-37.1zm24.4 108.3c4.1 12 9 23.6 14.6 33.7 9.7 2.5 20.8 4.5 32.9 6-8.3 4.4-15.4 7.8-21.6 10.7 6.5 7.8 13.6 13.4 21.1 15.6-11-1.3-22.1-5-32-10.4-5.7 2.8-11.2 5.7-18.2 10.4 1-7.6 1.3-14.7 1.4-22.4-8-7.4-14-16.1-16.9-25.4 3.6 3.9 9.5 7.3 17.2 10.3.2-8.4.5-17.9 1.5-28.5z" fill="#ffcc1b"/><defs ><path id="B" d="M296.7 173.2V163c0-13.8 8.1-21.4 20.8-21.4 12.1 0 20.5 6.9 20.7 21.4v7.5h-34.9v2.7c0 11.3 5.7 15.2 14.2 15.2 7.2 0 12.9-2.9 13.9-10.7h6.6c-1.1 11-9.3 16.9-20.5 16.9-12.7 0-20.8-7.6-20.8-21.4zm34.9-8.6V163c-.2-11.2-6.1-15.4-14.1-15.4-8.5 0-14.2 4.3-14.2 15.4v1.6h28.3z"/><path id="C" d="M353.5,142.5h6.6v7.1c2.1-4,6.2-7.1,13.7-7.1h5v6.6h-5c-8,0-13.7,4.6-13.7,15.3v29.3h-6.6V142.5z"/><path id="D" d="M191 294.9v-10.2c0-13.8 8.1-21.4 20.8-21.4 12.1 0 20.5 6.9 20.7 21.4v7.5h-34.9v2.7c0 11.3 5.7 15.2 14.2 15.2 7.2 0 12.9-2.9 13.9-10.7h6.6c-1.1 11-9.3 16.9-20.5 16.9-12.7 0-20.8-7.6-20.8-21.4zm34.9-8.6v-1.6c-.2-11.2-6.1-15.4-14.1-15.4-8.5 0-14.2 4.3-14.2 15.4v1.6h28.3z"/><path id="E" d="M493.6 298.9h6.5c0 7.7 6 11.3 14.1 11.3s13.3-3.4 13.3-8.7c0-3.5-2.2-6.4-8-7.9l-11.9-3c-7.5-1.9-11.8-6.4-11.8-13.3 0-7.8 6.5-13.9 17.9-13.9s19.1 6.6 19.1 16.1h-6.3c-.2-6.7-5.5-10.1-12.8-10.1-7.5 0-11.7 3.3-11.7 7.9 0 4.3 3.1 6.2 7.7 7.4l11.1 2.8c9 2.3 13.2 7 13.2 14 0 8.6-7.5 14.9-19.9 14.9-12-.1-20.3-6-20.5-17.5z"/><path id="F" d="M630.3 294.9v-10.2c0-13.8 8.1-21.4 20.8-21.4 11.7 0 20 6.4 20.6 18.3h-6.6c-.6-8.3-6.4-12.1-14-12.1-8.5 0-14.2 4.7-14.2 15.2v10.2c0 11.3 5.7 15.2 14.2 15.2 7.7 0 13.6-3.3 14-12.4h6.6c-.4 12-8.8 18.6-20.6 18.6-12.7 0-20.8-7.6-20.8-21.4z"/><path id="G" d="M253.8 416.6v-10.2c0-13.8 8-21.4 20.7-21.4 6 0 10.8 1.9 14.2 5.6v-28.5h6.6v75h-6.6v-4.7c-3.3 3.7-8.2 5.6-14.2 5.6-12.7 0-20.7-7.6-20.7-21.4zm20.7 15.2c8.1 0 14.2-4 14.2-15.2v-10.2c0-10.5-6.1-15.2-14.2-15.2-8.5 0-14.1 4.7-14.1 15.2v10.2c0 11.3 5.6 15.2 14.1 15.2z"/></defs></svg>